# xmcd
#
# Track frame offsets:
#	255
#	15762
#	38265
#	58848
#	88092
#	119095
#	154041
#	191870
#
# Disc length: 3010 seconds
# Revision: 0
# Processed by: cddbd v1.5.2PL0 Copyright (c) Steve Scherf et al.
# Submitted via: dBpowerAMP V12.0
#
DISCID=5f0bbf08
DTITLE=Chain - History of Chain
DYEAR=1900
DGENRE=Blues
TTITLE0=Show me home
TTITLE1=Gertrude Street blues
TTITLE2=On the road again
TTITLE3=Lightning Ground
TTITLE4=Black and blue
TTITLE5=Dust my blues
TTITLE6=32/20
TTITLE7=Grab a snatch and hold it
EXTD=
EXTT0=
EXTT1=
EXTT2=
EXTT3=
EXTT4=
EXTT5=
EXTT6=
EXTT7=
PLAYORDER=
